<svg viewBox="0 0 1200 360" width="1200" height="360" xmlns="http://www.w3.org/2000/svg">
  <defs>
    <linearGradient id="bgGrad" x1="0%" y1="0%" x2="100%" y2="100%">
      <stop offset="0%" stop-color="#0d1117"/>
      <stop offset="50%" stop-color="#1a1f29"/>
      <stop offset="100%" stop-color="#12161f"/>
    </linearGradient>
    <radialGradient id="glow" cx="50%" cy="35%" r="60%">
      <stop offset="0%" stop-color="#3a4a5c" stop-opacity="0.35"/>
      <stop offset="100%" stop-color="#0d1117" stop-opacity="0"/>
    </radialGradient>
    <linearGradient id="blockGrad" x1="0%" y1="0%" x2="100%" y2="100%">
      <stop offset="0%" stop-color="#6b7f92" stop-opacity="0.25"/>
      <stop offset="100%" stop-color="#3d4a58" stop-opacity="0.15"/>
    </linearGradient>
  </defs>

  <rect x="0" y="0" width="1200" height="360" fill="url(#bgGrad)"/>
  <rect x="0" y="0" width="1200" height="360" fill="url(#glow)"/>

  <g opacity="0.5">
    <rect x="60" y="40" width="26" height="26" fill="url(#blockGrad)" stroke="#8b9aa8" stroke-opacity="0.3"/>
    <rect x="90" y="40" width="26" height="26" fill="url(#blockGrad)" stroke="#8b9aa8" stroke-opacity="0.3"/>
    <rect x="60" y="70" width="26" height="26" fill="url(#blockGrad)" stroke="#8b9aa8" stroke-opacity="0.3"/>
    <rect x="1090" y="270" width="24" height="24" fill="url(#blockGrad)" stroke="#8b9aa8" stroke-opacity="0.3"/>
    <rect x="1064" y="270" width="24" height="24" fill="url(#blockGrad)" stroke="#8b9aa8" stroke-opacity="0.3"/>
    <rect x="1090" y="296" width="24" height="24" fill="url(#blockGrad)" stroke="#8b9aa8" stroke-opacity="0.3"/>
  </g>

  <g opacity="0.18">
    <circle cx="150" cy="280" r="90" fill="none" stroke="#ffffff" stroke-width="1"/>
    <circle cx="1050" cy="80" r="70" fill="none" stroke="#ffffff" stroke-width="1"/>
    <circle cx="600" cy="30" r="120" fill="none" stroke="#ffffff" stroke-width="1"/>
  </g>

  <g opacity="0.15">
    <line x1="0" y1="330" x2="1200" y2="330" stroke="#ffffff" stroke-width="1"/>
    <path d="M 0 20 L 200 60 L 400 15 L 600 55 L 800 10 L 1000 50 L 1200 20" fill="none" stroke="#ffffff" stroke-width="1"/>
  </g>

  <g opacity="0.4">
    <polygon points="140,150 148,130 156,150" fill="#a9bacb"/>
    <polygon points="1030,180 1040,155 1050,180" fill="#a9bacb"/>
  </g>

  <text x="600" y="170" text-anchor="middle" font-family="Segoe UI, Arial, sans-serif" font-size="58.0" fill="#ffffff" font-weight="bold">
    <tspan x="600" dy="0">+1 Mine Per Click Script</tspan>
  </text>

  <text x="600" y="230" text-anchor="middle" font-family="Segoe UI, Arial, sans-serif" font-size="22.0" fill="#c9d1d9">
    <tspan x="600" dy="0">+1 Mine Per Click Script — a lightweight Windows tool.</tspan>
  </text>
</svg>